<svg viewBox="0 0 48 48" xmlns="http://www.w3.org/2000/svg">
  <path
    d="m44.80159,11.57341l0,20.80159a5.2004,5.2004 0 0 1 -5.2004,5.2004l-13.00099,0l-13.00099,10.4008l0,-10.4008l-5.2004,0a5.2004,5.2004 0 0 1 -5.2004,-5.2004l0,-20.80159a5.2004,5.2004 0 0 1 5.2004,-5.2004l31.20239,0a5.2004,5.2004 0 0 1 5.2004,5.2004zm-28.60219,7.8006l-5.2004,0l0,5.2004l5.2004,0l0,-5.2004zm5.2004,0l5.2004,0l0,5.2004l-5.2004,0l0,-5.2004zm15.60119,0l-5.2004,0l0,5.2004l5.2004,0l0,-5.2004z"
    fill="#008080" />
</svg>